<svg width="120" height="24" viewBox="0 0 212 43" fill="none" xmlns="http://www.w3.org/2000/svg">
<path d="M0 8C0 3.58172 3.58172 0 8 0H204C208.418 0 212 3.58172 212 8V35C212 39.4183 208.418 43 204 43H7.99999C3.58172 43 0 39.4183 0 35V8Z" fill="#2E5478"/>
<g filter="url(#filter0_d_38_14)">
<path d="M47.8168 17.1886V14.2727H61.5547V17.1886H56.4336V31H52.9379V17.1886H47.8168ZM63.8171 31V14.2727H75.0884V17.1886H67.3537V21.1744H74.5085V24.0902H67.3537V28.0842H75.1211V31H63.8171ZM77.9001 14.2727H82.2616L86.8682 25.5114H87.0642L91.6707 14.2727H96.0322V31H92.6018V20.1126H92.463L88.1341 30.9183H85.7982L81.4694 20.0717H81.3305V31H77.9001V14.2727ZM98.946 31V14.2727H105.545C106.814 14.2727 107.895 14.515 108.788 14.9996C109.681 15.4788 110.362 16.1458 110.83 17.0007C111.304 17.8501 111.54 18.8303 111.54 19.9411C111.54 21.0518 111.301 22.032 110.822 22.8814C110.343 23.7308 109.648 24.3924 108.739 24.8661C107.835 25.3398 106.741 25.5767 105.456 25.5767H101.249V22.7425H104.884C105.565 22.7425 106.125 22.6255 106.566 22.3913C107.013 22.1518 107.345 21.8223 107.563 21.4031C107.786 20.9783 107.898 20.491 107.898 19.9411C107.898 19.3857 107.786 18.901 107.563 18.4872C107.345 18.0679 107.013 17.744 106.566 17.5153C106.12 17.2811 105.554 17.1641 104.868 17.1641H102.483V31H98.946ZM129.209 22.6364C129.209 24.4605 128.863 26.0123 128.172 27.2919C127.486 28.5715 126.549 29.5489 125.362 30.2241C124.181 30.8938 122.852 31.2287 121.376 31.2287C119.89 31.2287 118.556 30.8911 117.374 30.2159C116.193 29.5407 115.259 28.5633 114.573 27.2837C113.887 26.0041 113.544 24.455 113.544 22.6364C113.544 20.8123 113.887 19.2604 114.573 17.9808C115.259 16.7012 116.193 15.7266 117.374 15.0568C118.556 14.3816 119.89 14.044 121.376 14.044C122.852 14.044 124.181 14.3816 125.362 15.0568C126.549 15.7266 127.486 16.7012 128.172 17.9808C128.863 19.2604 129.209 20.8123 129.209 22.6364ZM125.623 22.6364C125.623 21.4548 125.447 20.4583 125.093 19.647C124.744 18.8357 124.251 18.2204 123.614 17.8011C122.977 17.3819 122.231 17.1722 121.376 17.1722C120.521 17.1722 119.775 17.3819 119.138 17.8011C118.501 18.2204 118.006 18.8357 117.652 19.647C117.303 20.4583 117.129 21.4548 117.129 22.6364C117.129 23.8179 117.303 24.8144 117.652 25.6257C118.006 26.437 118.501 27.0523 119.138 27.4716C119.775 27.8909 120.521 28.1005 121.376 28.1005C122.231 28.1005 122.977 27.8909 123.614 27.4716C124.251 27.0523 124.744 26.437 125.093 25.6257C125.447 24.8144 125.623 23.8179 125.623 22.6364ZM137.152 31V14.2727H143.752C145.015 14.2727 146.093 14.4987 146.986 14.9506C147.884 15.3971 148.568 16.0315 149.036 16.8537C149.51 17.6705 149.747 18.6315 149.747 19.7369C149.747 20.8477 149.507 21.8033 149.028 22.6037C148.549 23.3987 147.854 24.0085 146.945 24.4332C146.041 24.858 144.947 25.0703 143.662 25.0703H139.243V22.228H143.09C143.765 22.228 144.326 22.1354 144.772 21.9503C145.219 21.7652 145.551 21.4875 145.769 21.1172C145.992 20.7469 146.104 20.2868 146.104 19.7369C146.104 19.1815 145.992 18.7132 145.769 18.332C145.551 17.9509 145.216 17.6623 144.764 17.4663C144.318 17.2648 143.754 17.1641 143.074 17.1641H140.689V31H137.152ZM146.185 23.3878L150.343 31H146.439L142.371 23.3878H146.185ZM152.246 31V14.2727H163.517V17.1886H155.782V21.1744H162.937V24.0902H155.782V28.0842H163.55V31H152.246ZM169.212 31H165.422L171.197 14.2727H175.754L181.521 31H177.731L173.541 18.0952H173.41L169.212 31ZM168.975 24.4251H177.927V27.1857H168.975V24.4251ZM183.534 31V14.2727H187.07V28.0842H194.242V31H183.534Z" fill="white"/>
</g>
<ellipse cx="28.5" cy="33.4318" rx="11.5" ry="1.56818" fill="black" fill-opacity="0.5"/>
<ellipse cx="28.5" cy="22.4545" rx="11.5" ry="10.4545" fill="url(#paint0_linear_38_14)"/>
<ellipse cx="3.39378" cy="1.59216" rx="3.39378" ry="1.59216" transform="matrix(0.754347 0.656475 -0.725123 0.688619 33.5405 13.0455)" fill="#D9D9D9" fill-opacity="0.5"/>
<defs>
<filter id="filter0_d_38_14" x="43.8167" y="14.0441" width="154.425" height="25.1846" filterUnits="userSpaceOnUse" color-interpolation-filters="sRGB">
<feFlood flood-opacity="0" result="BackgroundImageFix"/>
<feColorMatrix in="SourceAlpha" type="matrix" values="0 0 0 0 0 0 0 0 0 0 0 0 0 0 0 0 0 0 127 0" result="hardAlpha"/>
<feOffset dy="4"/>
<feGaussianBlur stdDeviation="2"/>
<feComposite in2="hardAlpha" operator="out"/>
<feColorMatrix type="matrix" values="0 0 0 0 0 0 0 0 0 0 0 0 0 0 0 0 0 0 0.5 0"/>
<feBlend mode="normal" in2="BackgroundImageFix" result="effect1_dropShadow_38_14"/>
<feBlend mode="normal" in="SourceGraphic" in2="effect1_dropShadow_38_14" result="shape"/>
</filter>
<linearGradient id="paint0_linear_38_14" x1="28.5" y1="12" x2="28.5" y2="32.9091" gradientUnits="userSpaceOnUse">
<stop stop-color="#E13030"/>
<stop offset="1" stop-color="#B61313"/>
</linearGradient>
</defs>
</svg>
